<svg width="519" height="150" viewBox="0 0 519 150" fill="none" xmlns="http://www.w3.org/2000/svg">
<path d="M47.168 11.5449C67.8223 11.5449 82.4707 21.9453 82.4707 37.7656C82.4707 53 67.8223 63.8398 47.168 63.9863C26.6602 63.8398 11.7188 53 11.8652 37.7656C11.7188 21.9453 26.6602 11.5449 47.168 11.5449ZM47.168 28.8301C39.4043 28.9766 34.1309 31.6133 34.1309 37.7656C34.1309 43.332 39.4043 46.5547 47.168 46.5547C55.0781 46.5547 60.3516 43.332 60.3516 37.7656C60.3516 31.6133 55.0781 28.9766 47.168 28.8301ZM118.359 7.00391V109.543H95.0684V7.00391H118.359ZM3.36914 68.6738C27.832 68.6738 60.6445 68.3809 88.4766 64.7188L89.7949 81.2715C80.2734 82.9561 70.5322 84.1279 60.791 84.9336V105.734H42.1875V121.848H120.85V140.598H18.75V101.047H37.3535V86.252C26.2207 86.7646 15.6006 86.8379 6.15234 86.9844L3.36914 68.6738ZM246.973 7.29688V86.8379H223.389V7.29688H246.973ZM200.391 89.0352C229.248 88.8887 247.412 98.8496 247.412 115.842C247.412 132.98 229.248 142.648 200.391 142.502C171.387 142.648 153.223 132.98 153.223 115.842C153.223 98.8496 171.387 88.8887 200.391 89.0352ZM200.391 107.053C184.277 107.053 176.807 109.689 176.807 115.842C176.807 122.141 184.277 124.777 200.391 124.631C216.357 124.777 224.268 122.141 224.268 115.842C224.268 109.689 216.357 107.053 200.391 107.053ZM212.695 15.207V33.957H188.379C190.063 46.7012 198.267 59.5918 218.848 65.5977L206.836 83.9082C192.407 79.7334 182.593 71.2373 176.66 60.4707C170.435 72.7021 160.107 82.4434 144.434 87.2773L132.275 68.6738C153.589 62.2285 162.012 48.0195 163.916 33.957H138.574V15.207H212.695ZM377.344 7.00391V142.502H353.467V7.00391H377.344ZM336.328 20.9199C336.328 63.4004 324.316 97.2383 274.072 120.676L262.061 102.219C295.898 86.1055 309.448 67.502 312.451 39.2305H269.824V20.9199H336.328ZM515.625 77.3164V95.627H391.992V77.3164H515.625ZM501.27 9.34766V48.3125H430.225V54.1719H503.467V71.457H406.934V32.0527H477.832V27.0723H406.787V9.34766H501.27ZM502.002 101.633V142.355H478.418V120.236H405.762V101.633H502.002Z" fill="black"/>
<circle cx="85" cy="93" r="12" fill="#6BB58A"/>
<circle cx="216" cy="48" r="12" fill="#6BB58A"/>
<circle cx="454" cy="75" r="12" fill="#6BB58A"/>
</svg>
